<svg width="12" height="13" viewBox="0 0 12 13" fill="none" xmlns="http://www.w3.org/2000/svg">
<path d="M4.33895 10.3871C3.98707 10.3871 3.68584 10.2618 3.43526 10.0112C3.18468 9.76065 3.05938 9.45941 3.05938 9.10753V1.43011C3.05938 1.07823 3.18468 0.776999 3.43526 0.526417C3.68584 0.275834 3.98707 0.150543 4.33895 0.150543H10.097C10.4489 0.150543 10.7501 0.275834 11.0007 0.526417C11.2513 0.776999 11.3766 1.07823 11.3766 1.43011V9.10753C11.3766 9.45941 11.2513 9.76065 11.0007 10.0112C10.7501 10.2618 10.4489 10.3871 10.097 10.3871H4.33895ZM4.33895 9.10753H10.097V1.43011H4.33895V9.10753ZM1.77981 12.9462C1.42793 12.9462 1.1267 12.821 0.876118 12.5704C0.625535 12.3198 0.500244 12.0186 0.500244 11.6667V2.70968H1.77981V11.6667H8.81745V12.9462H1.77981Z" fill="white"/>
</svg>
